HIERARCHY
ROOT Hips
{
  OFFSET -213.699 104.721 0.752556
  CHANNELS 6 Xposition Yposition Zposition Zrotation Xrotation Yrotation
  JOINT RightUpLeg
  {
    OFFSET -8.9458 -8.66707 0.101652
    CHANNELS 3 Zrotation Xrotation Yrotation
    JOINT RightLeg
    {
      OFFSET 0 -44.4227 1.3727
      CHANNELS 3 Zrotation Xrotation Yrotation
      JOINT RightFoot
      {
        OFFSET 0.253549 -42.0924 -1.46059
        CHANNELS 3 Zrotation Xrotation Yrotation
        JOINT RightToes
        {
          OFFSET 0.04 -4.41509 8.4991
          CHANNELS 3 Zrotation Xrotation Yrotation
          End Site
          {
            OFFSET -0.08 -0.137448 9.77979
          }
        }
      }
    }
  }
  JOINT Spine
  {
    OFFSET 0 11.8905 0
    CHANNELS 3 Zrotation Xrotation Yrotation
    JOINT Spine1
    {
      OFFSET 0 25.6574 0.127663
      CHANNELS 3 Zrotation Xrotation Yrotation
      JOINT HEad
      {
        OFFSET 0 8.73416 0.011341
        CHANNELS 3 Zrotation Xrotation Yrotation
        End Site
        {
          OFFSET -0.29 12.7742 2.51395
        }
      }
      JOINT LeftShoulder1
      {
        OFFSET 8.99 -0.362252 -0.22
        CHANNELS 3 Zrotation Xrotation Yrotation
        JOINT LeftArm
        {
          OFFSET 10.2827 -0.00337999 0.322123
          CHANNELS 3 Zrotation Xrotation Yrotation
          JOINT LeftForeArm
          {
            OFFSET 26.2597 0.099144 -1.42434
            CHANNELS 3 Zrotation Xrotation Yrotation
            JOINT LeftHand
            {
              OFFSET 22.0902 0.085362 1.02216
              CHANNELS 3 Zrotation Xrotation Yrotation
              End Site
              {
                OFFSET 13.419 -0.6 1.50291
              }
            }
          }
        }
      }
      JOINT RightShoulder
      {
        OFFSET -8.99 -0.362252 -0.22
        CHANNELS 3 Zrotation Xrotation Yrotation
        JOINT RightArm
        {
          OFFSET -10.2827 -0.00338 0.322123
          CHANNELS 3 Zrotation Xrotation Yrotation
          JOINT RightForeArm
          {
            OFFSET -26.364 0.099144 -1.42434
            CHANNELS 3 Zrotation Xrotation Yrotation
            JOINT RightHand
            {
              OFFSET -22.0324 0.085362 1.02216
              CHANNELS 3 Zrotation Xrotation Yrotation
              End Site
              {
                OFFSET -13.3284 -0.6 1.50291
              }
            }
          }
        }
      }
    }
  }
  JOINT LeftUpLeg
  {
    OFFSET 8.9458 -8.66707 0.101652
    CHANNELS 3 Zrotation Xrotation Yrotation
    JOINT LeftLeg
    {
      OFFSET 0 -44.4227 1.3727
      CHANNELS 3 Zrotation Xrotation Yrotation
      JOINT LeftFoot
      {
        OFFSET -0.253549 -42.0924 -1.46059
        CHANNELS 3 Zrotation Xrotation Yrotation
        JOINT LeftToes
        {
          OFFSET -0.04 -4.41509 8.4991
          CHANNELS 3 Zrotation Xrotation Yrotation
          End Site
          {
            OFFSET 0.08 -0.047448 9.77979
          }
        }
      }
    }
  }
}
MOTION
Frames:	21
Frame Time:	0.0333333
-101.09 110.744 -93.0779 2.19127 8.29404 102.248 2.40736 -23.5353 2.86255 -2.34521 76.5473 -5.12663 -3.91736 -3.28112 0.0051091 0.0462048 0.000530889 0.662642 -8.09632 14.7027 -0.049314 1.90427 1.44375 -1.31227 13.977 1.57245 -11.8263 -31.2869 -3.5348 12.9528 -73.5142 -47.7621 -32.9241 -172.592 64.9439 174.864 9.01577 8.98671 -7.48883 28.8402 -0.561435 -5.73321 54.3828 -19.8577 18.8939 3.61507 37.44 12.9944 -1.35848 9.85157 5.29776 -3.7171 -16.703 -6.08329 0.0839953 39.1631 -6.70784 -11.8577 -14.2211 -0.624236 -1.31255e-009 8.75233e-006 -1.46896e-008 
-98.541 110.732 -94.91 2.49794 8.54523 100.004 1.54332 -29.8202 0.890919 -3.10144 79.4257 -4.79081 -4.61373 -7.98426 -0.183147 0.0462048 0.000530889 0.662642 -9.40751 15.7085 -0.0931145 2.67767 1.1734 -1.82548 13.6242 1.28987 -11.7226 -30.6284 -3.17712 12.1504 -80.7076 -44.8791 -41.0193 -173.037 62.0163 177.621 9.2903 9.01328 -6.69727 29.5966 -0.678087 -6.01421 53.5633 -24.2063 17.9394 3.02592 37.4839 12.0076 -1.39796 9.85064 4.55009 -3.85196 -15.0413 -2.80253 0.0477218 40.4392 -7.87539 -10.5756 -15.4347 -0.656106 -1.31255e-009 8.75233e-006 -1.46896e-008 
-95.872 111.148 -96.6295 2.82088 8.22231 97.8269 1.27561 -34.7629 -0.973975 -2.78247 78.1325 -5.09308 -4.12498 -12.5697 -0.381085 0.0462048 0.000530889 0.662642 -9.2597 16.0224 -0.179087 2.85851 1.38402 -1.96687 13.3708 1.83177 -11.767 -29.793 -2.81348 11.3404 -86.1175 -40.991 -47.5862 -173.01 60.1705 179.154 9.50329 9.03917 -6.04588 29.72 -0.646382 -5.91604 52.8651 -27.5017 16.9356 2.72958 38.074 10.1474 -1.35862 9.85621 3.7884 -3.83324 -12.5685 -0.672374 0.0571676 40.2277 -7.57991 -9.93432 -15.9917 -0.657186 -1.31255e-009 8.75233e-006 -1.46896e-008 
-93.0894 112.053 -98.1546 2.82874 7.41396 96.2274 1.16039 -38.1481 -3.61983 -1.91283 72.6686 -6.44995 -3.48716 -15.6125 -0.474867 0.0462048 0.000530889 0.662642 -8.53804 15.9579 -0.557239 3.28194 1.43181 -2.29867 13.3313 3.43715 -11.5667 -28.882 -2.49313 10.6271 -88.5434 -37.3352 -51.526 -172.863 61.5263 178.874 9.6755 9.03503 -5.8734 29.6369 -0.65234 -5.93828 51.6889 -28.8701 15.8802 3.04373 39.5703 8.06404 -1.06787 9.87946 3.17748 -3.79014 -9.666 0.246061 0.109406 38.1883 -6.41664 -9.51102 -15.6818 -0.601183 -1.31255e-009 8.75233e-006 -1.46896e-008 
-90.2328 113.236 -99.4262 2.39822 6.41289 95.2464 1.19872 -39.9047 -6.78217 -1.39407 64.0639 -7.51764 -3.63447 -18.0479 -0.579807 0.0462048 0.000530889 0.662642 -8.13499 15.9077 -1.02091 4.40396 1.04989 -2.9034 13.3085 5.04509 -11.2685 -27.7463 -2.15188 9.85326 -88.8648 -34.5372 -53.3214 -172.062 66.4472 176.488 9.73108 8.99309 -6.3564 29.7663 -0.761799 -6.2347 49.7938 -29.1761 14.5694 3.73855 42.3367 6.96112 -0.636685 9.91005 2.7154 -3.66439 -6.90796 0.530174 0.166636 35.057 -5.08793 -9.35068 -14.2361 -0.476254 -1.31255e-009 8.75233e-006 -1.46896e-008 
-87.1829 114.431 -100.536 1.85245 5.43553 94.2102 1.80661 -40.1911 -9.09459 -1.04904 54.3758 -6.87207 -2.77972 -20.2045 -0.565583 0.0462048 0.000530889 0.662642 -7.93415 15.7821 -1.31648 5.64328 0.642585 -3.41697 13.1104 5.83148 -11.0299 -26.4622 -1.78361 8.96939 -87.9756 -32.483 -53.7944 -168.678 72.8197 170.889 9.62617 8.93357 -7.28843 29.8611 -0.86306 -6.50971 47.8952 -29.2996 12.7415 4.07759 45.5832 7.25126 -0.530198 9.91667 2.52298 -3.52905 -4.06628 0.585205 0.227447 31.5956 -3.43965 -9.82109 -12.0176 -0.321422 -1.31255e-009 8.75233e-006 -1.46896e-008 
-83.8002 115.527 -101.585 1.51638 4.60377 92.7306 2.96474 -39.3031 -9.96227 -0.720307 45.8714 -4.94703 -0.136809 -20.3151 -0.280899 0.0462048 0.000530889 0.662642 -7.43918 15.197 -1.53933 6.33533 0.627909 -3.70186 12.662 6.20645 -10.8224 -25.4723 -1.4935 8.22088 -86.2053 -31.0293 -53.6114 -162.119 78.1809 162.006 9.567 8.86583 -8.27409 29.6014 -0.88269 -6.58598 46.7373 -29.2255 10.6435 3.99118 47.8384 8.01854 -0.849491 9.89498 2.65678 -3.593 -0.843382 0.254012 0.304242 28.1922 -1.47843 -10.8225 -9.09882 -0.0970633 -1.31255e-009 8.75233e-006 -1.46896e-008 
-80.0561 116.516 -102.57 1.41032 3.95217 91.2305 4.27346 -37.4425 -9.83974 -0.590251 40.0722 -4.11435 0.757143 -18.1368 -0.161455 0.0462048 0.000530889 0.662642 -6.66333 14.1289 -1.90598 6.64579 0.904021 -4.00904 11.8444 7.02763 -10.6452 -25.0185 -1.35956 7.85747 -84.0145 -30.1391 -53.0921 -160.009 82.216 157.396 9.62364 8.79514 -9.12134 29.1505 -0.878263 -6.61232 46.2798 -29.0017 8.74257 3.93069 48.8042 8.43364 -1.10598 9.87723 2.76029 -3.80653 2.41566 -0.358281 0.385725 25.3503 -0.136408 -11.7859 -5.26987 0.263213 -1.31255e-009 8.75233e-006 -1.46896e-008 
-76.0724 117.343 -103.435 1.39927 3.5565 90.0787 5.45111 -35.0274 -8.92022 -0.649767 37.4623 -5.32563 -2.43014 -16.3835 -0.422647 0.0462048 0.000530889 0.662642 -5.87621 12.9149 -2.35027 7.00647 1.13486 -4.40829 10.5128 8.3076 -10.6047 -24.9117 -1.35633 7.86076 -82.2496 -29.5916 -52.4139 -165.345 85.3214 160.502 9.48312 8.76051 -9.82746 28.7763 -0.884902 -6.66393 45.9973 -28.8834 6.98936 3.77613 49.1387 8.79849 -1.00738 9.88408 2.57452 -3.90032 5.01704 -0.390716 0.398463 23.8681 -0.41598 -12.484 -0.783764 0.739655 -1.31255e-009 8.75233e-006 -1.46896e-008 
-72.0503 117.913 -104.205 1.3764 3.36073 88.9773 6.41474 -32.7186 -7.13947 -0.740627 37.6767 -7.14689 -6.38764 -17.5886 -0.812209 0.0462048 0.000530889 0.662642 -4.95542 11.739 -2.59815 7.29559 1.3073 -4.57976 8.83535 9.2711 -10.7405 -25.0073 -1.41532 8.03664 -81.4066 -29.1097 -51.8109 -161.366 87.244 155.286 9.05651 8.77963 -10.3525 28.5061 -0.850064 -6.58728 45.7677 -29.0975 5.45269 3.52516 49.6102 8.98695 -0.909958 9.89075 2.50509 -3.71927 6.32572 0.600683 0.262337 24.578 -2.28956 -13.5281 4.30808 1.37787 -1.31255e-009 8.75233e-006 -1.46896e-008 
-68.2353 118.232 -104.952 1.28589 2.99493 87.5253 7.24487 -30.9706 -5.1693 -0.783158 39.5562 -7.90864 -6.9445 -20.8964 -1.07822 0.0462048 0.000530889 0.662642 -3.43435 10.6104 -2.60071 7.26796 1.70097 -4.37821 7.36579 9.58231 -10.9337 -25.4367 -1.50641 8.26508 -81.2124 -28.7307 -51.3695 -147.844 87.728 141.328 8.76523 8.80378 -10.5824 28.3542 -0.760001 -6.33952 46.0211 -29.6196 5.1448 3.9276 50.8878 7.72619 -1.11902 9.87607 2.84549 -3.11359 5.86546 2.01179 0.130376 27.8693 -5.23109 -15.5955 10.6498 2.42573 -1.31255e-009 8.75233e-006 -1.46896e-008 
-64.7955 118.398 -105.68 1.1602 2.1266 85.9762 8.02808 -29.5852 -4.04528 -0.777196 41.539 -7.16004 -4.88407 -23.8238 -0.995897 0.0462048 0.000530889 0.662642 -1.32017 9.71022 -2.62344 7.20382 2.2981 -4.12184 6.59352 9.9028 -11.0805 -26.1907 -1.62972 8.53907 -81.2449 -28.7521 -50.8351 -148.909 86.6557 142.576 8.86156 8.79531 -10.5135 28.4257 -0.688671 -6.12731 47.1303 -29.8118 6.96882 5.43334 53.1115 4.67287 -1.34213 9.86049 2.85506 -1.96042 3.6125 2.51291 0.0003306 33.5085 -8.22468 -17.7594 16.8727 3.68427 -1.31255e-009 8.75233e-006 -1.46896e-008 
-61.6608 118.633 -106.321 1.14859 1.13562 84.6402 8.4966 -27.7739 -4.02313 -0.727713 42.4439 -5.65341 -3.43786 -25.6155 -0.856844 0.0462048 0.000530889 0.662642 0.450776 9.27548 -2.73395 7.33239 2.6451 -4.0257 6.56858 10.9286 -11.2927 -26.935 -1.77067 8.85559 -81.4178 -29.3156 -49.8596 -156.794 84.1922 151.13 9.04811 8.78251 -10.3281 28.7312 -0.688154 -6.10307 48.9074 -29.5948 10.2846 7.4436 56.3792 1.49604 -1.20637 9.87148 1.85596 -0.77941 0.259016 1.87995 -0.0936539 40.6008 -10.2455 -17.4766 18.8243 3.91721 -1.31255e-009 8.75233e-006 -1.46896e-008 
-58.6978 119.143 -106.868 1.3148 0.548246 83.1807 8.48173 -25.1817 -4.17392 -0.646601 42.1002 -3.98866 -3.02009 -26.9843 -0.834876 0.0462048 0.000530889 0.662642 1.36368 9.32095 -2.65771 7.34206 2.55671 -3.82178 6.99395 12.3002 -11.7349 -27.4809 -1.92046 9.21649 -81.6156 -30.2641 -48.3413 -160.909 80.7013 156.162 9.09951 8.78476 -10.1977 29.1074 -0.707977 -6.13242 50.8063 -29.0183 13.6222 8.7737 59.7362 0.172059 -0.936853 9.88807 0.688792 -0.153023 -3.71742 0.818164 -0.0324603 48.3665 -9.75466 -13.9912 14.5066 2.62304 -1.31255e-009 8.75233e-006 -1.46896e-008 
-55.9015 119.929 -107.398 1.52121 0.464412 81.1708 8.07629 -22.2915 -3.58804 -0.54909 40.986 -2.17102 -1.94954 -28.0975 -0.674645 0.0462048 0.000530889 0.662642 1.80819 9.58785 -2.22871 6.88586 2.36744 -3.25342 7.47645 13.059 -12.2596 -28.025 -2.10463 9.66602 -81.4765 -31.4628 -46.392 -162.664 76.8834 158.733 9.21364 8.78103 -10.036 29.3504 -0.67344 -6.01724 52.4478 -27.9145 16.3752 8.94607 61.5661 1.00855 -1.06804 9.8808 0.662686 -0.1103 -8.23806 0.00496088 0.222404 55.6472 -5.72896 -9.53529 7.14234 1.1736 -1.31255e-009 8.75233e-006 -1.46896e-008 
-53.3028 120.845 -107.965 1.65588 0.625503 78.8226 7.44203 -19.5413 -2.42747 -0.45353 39.3832 -0.383857 -0.25234 -28.5343 -0.363861 0.0462048 0.000530889 0.662642 2.22791 9.87005 -1.68994 6.13549 2.32688 -2.53592 7.68659 12.9941 -12.4837 -28.7756 -2.35376 10.249 -80.8068 -33.048 -44.1551 -165.564 73.3918 162.165 9.44747 8.77848 -9.64745 29.3456 -0.588722 -5.77832 53.8119 -26.1407 18.8433 8.56539 61.5781 3.04864 -1.59431 9.84838 1.655 -0.348682 -13.335 -0.752989 0.610951 61.495 -0.0883799 -5.51997 0.891398 0.386158 -1.31255e-009 8.75233e-006 -1.46896e-008 
-50.8433 121.804 -108.542 1.80652 0.895589 76.5941 6.62711 -16.7504 -1.19283 -0.379992 37.2053 0.907638 0.74665 -28.3804 -0.172547 0.0462048 0.000530889 0.662642 2.50463 10.2208 -1.285 5.38664 2.23723 -1.97076 7.55341 12.8472 -12.2745 -29.6313 -2.65191 10.9237 -79.871 -35.2169 -41.833 -169.523 70.1028 166.751 9.55169 8.80536 -9.10568 29.1119 -0.509148 -5.56726 54.4248 -22.4707 20.9408 7.24024 59.6774 6.64413 -2.11089 9.80917 2.51222 -0.849518 -18.6732 -2.10138 1.02467 65.5135 3.86395 -1.60637 -3.786 0.0638925 -1.31255e-009 8.75233e-006 -1.46896e-008 
-48.4673 122.765 -109.109 2.11108 1.31812 74.4926 5.61372 -13.791 0.2779 -0.339641 34.6675 1.518 1.15344 -28.1273 -0.0964986 0.0462048 0.000530889 0.662642 2.48049 10.7569 -0.927031 4.58983 1.93722 -1.48479 7.25754 13.1924 -11.861 -30.3841 -2.94522 11.5752 -79.0627 -37.8836 -39.7493 -172.161 66.338 170.625 9.53038 8.84237 -8.64856 28.7691 -0.449745 -5.41681 52.9481 -14.28 22.1577 4.25521 53.4388 12.2767 -2.54702 9.77527 2.82014 -1.73222 -23.7886 -4.19993 1.29266 67.5751 5.27738 1.54453 -8.55541 0.0453221 -1.31255e-009 8.75233e-006 -1.46896e-008 
-46.1731 123.678 -109.688 2.5767 1.87526 72.2942 4.4107 -10.9541 2.35672 -0.325501 32.2876 1.63868 1.98103 -27.8357 0.0541056 0.0462048 0.000530889 0.662642 2.30326 11.4032 -0.469133 3.60423 1.62981 -0.884584 6.97134 13.8305 -11.4429 -30.9997 -3.20452 12.1396 -78.4428 -40.7098 -38.0785 -173.798 61.9668 174.006 9.57143 8.86747 -8.24921 28.3994 -0.376241 -5.22371 49.5885 -2.8242 23.1719 1.43463 42.997 17.5922 -2.97934 9.73889 3.14583 -2.73585 -28.5198 -6.66649 1.33767 67.7435 5.37533 2.67287 -13.2689 0.190963 -1.31255e-009 8.75233e-006 -1.46896e-008 
-43.9505 124.506 -110.285 3.07578 2.47699 70.1058 3.06109 -8.50684 4.76969 -0.324647 30.2836 1.48478 2.96927 -27.2485 0.223806 0.0462048 0.000530889 0.662642 2.07912 11.9413 -0.00106056 2.5652 1.51659 -0.270704 6.65018 14.4014 -10.9566 -31.5893 -3.46163 12.6848 -77.6542 -43.431 -36.5944 -174.463 57.5753 176.521 9.46063 8.92137 -7.69498 27.9604 -0.274528 -4.9467 46.5085 6.14591 24.7672 0.0423803 33.3661 21.0201 -3.19062 9.71042 3.84768 -3.5409 -32.8702 -9.23244 1.23404 66.1973 5.18079 2.70607 -16.6475 0.304053 -1.31255e-009 8.75233e-006 -1.46896e-008 
-41.7762 125.199 -110.889 3.45117 3.09784 68.1926 1.60488 -6.53602 6.90922 -0.331107 28.6625 1.19607 3.22376 -26.5338 0.252906 0.0462048 0.000530889 0.662642 1.73251 12.2793 0.31333 1.69122 1.49528 0.150108 6.16531 14.9167 -10.3069 -32.2306 -3.75915 13.3044 -76.3045 -46.0056 -34.9792 -174.51 54.0377 178.144 8.94593 9.02297 -7.07614 27.4234 -0.177667 -4.68067 45.5342 9.35219 26.5163 -0.208397 28.1235 22.8095 -2.97413 9.71386 4.65595 -4.20542 -36.8542 -12.0299 1.07831 63.1594 4.95552 3.46941 -18.4461 0.433116 -1.31255e-009 8.75233e-006 -1.46896e-008 
